FILE "Penn & Teller's Smoke and Mirrors (USA) (Disc 2) (Track 1).bin" BINARY
  TRACK 01 MODE1/2352
    INDEX 01 00:00:00
FILE "Penn & Teller's Smoke and Mirrors (USA) (Disc 2) (Track 2).bin" BINARY
  TRACK 02 AUDIO
    INDEX 01 00:00:00
FILE "Penn & Teller's Smoke and Mirrors (USA) (Disc 2) (Track 3).bin" BINARY
  TRACK 03 AUDIO
    INDEX 01 00:00:00
FILE "Penn & Teller's Smoke and Mirrors (USA) (Disc 2) (Track 4).bin" BINARY
  TRACK 04 AUDIO
    INDEX 01 00:00:00
